<svg width="457" height="62" viewBox="0 0 457 62" fill="none" xmlns="http://www.w3.org/2000/svg">
<path d="M61.7515 30.8757C61.7515 47.9386 47.8371 61.7515 30.8758 61.7515C13.9144 61.7515 0 47.8371 0 30.8757C0 13.9144 13.9144 0 30.8758 0C47.8371 0 61.7515 13.8128 61.7515 30.8757ZM12.1878 30.8757C12.1878 41.1338 20.5161 49.5637 30.8758 49.5637C41.1338 49.5637 49.5637 41.2354 49.5637 30.8757C49.5637 20.6177 41.2354 12.1878 30.8758 12.1878C20.5161 12.1878 12.1878 20.5161 12.1878 30.8757Z" fill="white"/>
<path d="M117.409 60.735L83.8928 25.8982V60.735H72.0098V1.11639H75.7676L108.675 34.5312V1.11639H120.558V60.735H117.409Z" fill="white"/>
<path d="M143.512 48.7501H165.754V60.5317H131.628V0.913025H143.512V48.7501Z" fill="white"/>
<path d="M222.368 1.01581L202.969 38.798V60.6344H191.086V38.798L171.586 1.01581H184.789L197.079 23.4617L209.267 1.01581H222.368Z" fill="white"/>
<path d="M231.815 35.9529H260.964V45.8048H231.815V35.9529Z" fill="white"/>
<path d="M317.431 60.7353L283.914 25.8985V60.7353H272.031V1.11664H275.789L308.696 34.5315V1.11664H320.579V60.7353H317.431Z" fill="white"/>
<path d="M330.396 60.6186V1H342.279V60.6186H330.396Z" fill="white"/>
<path d="M396.854 15.5387C385.275 8.02291 367.806 15.0309 367.806 31.0781C367.806 47.8363 386.291 54.5396 397.463 46.0082L405.08 54.7428C399.697 59.2116 392.791 61.8523 385.377 61.8523C368.314 61.8523 354.501 47.9379 354.501 30.9766C354.501 14.0152 368.415 0.10083 385.478 0.10083C392.588 0.10083 399.291 2.53839 404.572 6.70255L396.854 15.5387Z" fill="white"/>
<path d="M456.069 12.9997H416.357V1.11664H456.069V12.9997ZM416.256 23.9687H449.163V35.8519H416.256V23.9687ZM416.256 48.7506H455.765V60.6337H416.256V48.7506Z" fill="white"/>
</svg>

