<svg width="113" height="28" viewBox="0 0 113 28" fill="none" xmlns="http://www.w3.org/2000/svg">
    <path d="M15.5988 8.35338C15.5988 12.5504 12.1763 15.948 8.00427 15.948C3.83224 15.948 0.409668 12.5254 0.409668 8.35338C0.409668 4.18135 3.83224 0.758789 8.00427 0.758789C12.1763 0.758789 15.5988 4.15637 15.5988 8.35338ZM3.40753 8.35338C3.40753 10.8766 5.45608 12.9501 8.00427 12.9501C10.5275 12.9501 12.601 10.9016 12.601 8.35338C12.601 5.83017 10.5525 3.75665 8.00427 3.75665C5.45608 3.75665 3.40753 5.80519 3.40753 8.35338Z" fill="white"/>
    <path d="M29.2891 15.6978L21.045 7.12886V15.6978H18.1221V1.0332H19.0464L27.1406 9.25235V1.0332H30.0636V15.6978H29.2891Z" fill="white"/>
    <path d="M35.7095 12.75H41.1807V15.648H32.7866V0.983398H35.7095V12.75Z" fill="white"/>
    <path d="M55.1054 1.00781L50.3338 10.3012V15.6724H47.4108V10.3012L42.6143 1.00781H45.8619L48.8848 6.52888L51.8827 1.00781H55.1054Z" fill="white"/>
    <path d="M57.4297 9.60156H64.5996V12.0248H57.4297V9.60156Z" fill="white"/>
    <path d="M78.4898 15.6978L70.2457 7.12886V15.6978H67.3228V1.0332H68.2471L76.3413 9.25235V1.0332H79.2642V15.6978H78.4898Z" fill="white"/>
    <path d="M81.6782 15.6685V1.00391H84.6011V15.6685H81.6782Z" fill="white"/>
    <path d="M98.0245 4.5805C95.1765 2.73182 90.8796 4.45559 90.8796 8.40278C90.8796 12.5248 95.4264 14.1737 98.1744 12.0752L100.048 14.2236C98.724 15.3228 97.0252 15.9724 95.2015 15.9724C91.0045 15.9724 87.6069 12.5498 87.6069 8.37779C87.6069 4.20576 91.0295 0.783203 95.2265 0.783203C96.9753 0.783203 98.6241 1.38278 99.9232 2.40705L98.0245 4.5805Z" fill="white"/>
    <path d="M112.59 3.95612H102.822V1.0332H112.59V3.95612ZM102.797 6.6542H110.891V9.57712H102.797V6.6542ZM102.797 12.7499H112.515V15.6728H102.797V12.7499Z" fill="white"/>
    <path d="M41.8204 27.415V19.8391H44.9806C45.796 19.8391 46.4345 20.005 46.8963 20.3369C47.358 20.6688 47.5889 21.1486 47.5889 21.7764C47.5889 22.1876 47.4915 22.534 47.2967 22.8153C47.1019 23.0967 46.8313 23.3096 46.485 23.4539C46.1459 23.591 45.7635 23.6595 45.3378 23.6595L45.5326 23.4431C46.0521 23.4431 46.4958 23.5188 46.8638 23.6703C47.2318 23.8219 47.5096 24.0419 47.6972 24.3305C47.892 24.6191 47.9894 24.9799 47.9894 25.4128C47.9894 26.0478 47.7585 26.542 47.2967 26.8955C46.8349 27.2419 46.1351 27.415 45.1971 27.415H41.8204ZM42.3723 26.9388H45.1971C45.9258 26.9388 46.4814 26.8162 46.8638 26.5709C47.2462 26.3183 47.4374 25.9179 47.4374 25.3695C47.4374 24.8284 47.2462 24.4352 46.8638 24.1898C46.4814 23.9373 45.9258 23.811 45.1971 23.811H42.3074V23.3348H44.959C45.6156 23.3348 46.1242 23.2086 46.485 22.956C46.8458 22.7035 47.0261 22.3247 47.0261 21.8197C47.0261 21.3218 46.8458 20.9466 46.485 20.6941C46.1242 20.4415 45.6156 20.3153 44.959 20.3153H42.3723V26.9388ZM49.9586 27.415V19.8391H50.5106V26.9172H54.8722V27.415H49.9586ZM59.3559 27.4692C58.7932 27.4692 58.2701 27.3754 57.7866 27.1878C57.3104 26.9929 56.892 26.7224 56.5312 26.3761C56.1776 26.0225 55.9035 25.6148 55.7087 25.1531C55.5138 24.6841 55.4164 24.1754 55.4164 23.6271C55.4164 23.0787 55.5138 22.5736 55.7087 22.1119C55.9035 21.6429 56.1776 21.2352 56.5312 20.8889C56.892 20.5353 57.3104 20.2648 57.7866 20.0772C58.2701 19.8824 58.7932 19.785 59.3559 19.785C59.9187 19.785 60.4382 19.8824 60.9144 20.0772C61.3978 20.2648 61.8163 20.5317 62.1699 20.8781C62.5234 21.2244 62.7976 21.6321 62.9924 22.101C63.1944 22.5628 63.2954 23.0715 63.2954 23.6271C63.2954 24.1826 63.1944 24.6949 62.9924 25.1639C62.7976 25.6257 62.5234 26.0297 62.1699 26.3761C61.8163 26.7224 61.3978 26.9929 60.9144 27.1878C60.4382 27.3754 59.9187 27.4692 59.3559 27.4692ZM59.3559 26.9605C59.8394 26.9605 60.2867 26.8775 60.698 26.7116C61.1092 26.5456 61.4664 26.3111 61.7694 26.0081C62.0725 25.705 62.307 25.3515 62.4729 24.9474C62.6461 24.5434 62.7327 24.1033 62.7327 23.6271C62.7327 23.1436 62.6461 22.7035 62.4729 22.3067C62.307 21.9026 62.0725 21.5491 61.7694 21.246C61.4664 20.943 61.1092 20.7085 60.698 20.5426C60.2867 20.3766 59.8394 20.2936 59.3559 20.2936C58.8725 20.2936 58.4252 20.3766 58.0139 20.5426C57.6026 20.7085 57.2419 20.943 56.9316 21.246C56.6286 21.5491 56.3905 21.9026 56.2173 22.3067C56.0514 22.7035 55.9684 23.1436 55.9684 23.6271C55.9684 24.1033 56.0514 24.5434 56.2173 24.9474C56.3905 25.3515 56.6286 25.705 56.9316 26.0081C57.2419 26.3111 57.6026 26.5456 58.0139 26.7116C58.4252 26.8775 58.8725 26.9605 59.3559 26.9605ZM68.4459 27.4692C67.8759 27.4692 67.3492 27.3754 66.8658 27.1878C66.3824 26.9929 65.9603 26.7224 65.5995 26.3761C65.246 26.0297 64.9718 25.6257 64.777 25.1639C64.5822 24.6949 64.4848 24.1826 64.4848 23.6271C64.4848 23.0715 64.5822 22.5628 64.777 22.101C64.9718 21.6321 65.2496 21.2244 65.6103 20.8781C65.9711 20.5317 66.3896 20.2648 66.8658 20.0772C67.3492 19.8824 67.8795 19.785 68.4567 19.785C69.0051 19.785 69.5138 19.8715 69.9827 20.0447C70.4517 20.2179 70.8522 20.4776 71.1841 20.824L70.8377 21.1919C70.5059 20.8672 70.1415 20.6364 69.7446 20.4993C69.355 20.3622 68.9293 20.2936 68.4676 20.2936C67.9769 20.2936 67.5224 20.3766 67.1039 20.5426C66.6854 20.7085 66.321 20.943 66.0108 21.246C65.7005 21.5491 65.4588 21.9026 65.2857 22.3067C65.1197 22.7107 65.0367 23.1509 65.0367 23.6271C65.0367 24.1033 65.1197 24.5434 65.2857 24.9474C65.4588 25.3515 65.7005 25.705 66.0108 26.0081C66.321 26.3111 66.6854 26.5456 67.1039 26.7116C67.5224 26.8775 67.9769 26.9605 68.4676 26.9605C68.9149 26.9605 69.337 26.8919 69.7338 26.7548C70.1379 26.6178 70.5059 26.3905 70.8377 26.073L71.1516 26.4951C70.8125 26.8198 70.4048 27.0651 69.9286 27.2311C69.4596 27.3898 68.9654 27.4692 68.4459 27.4692ZM70.6213 26.441V23.6595H71.1516V26.4951L70.6213 26.441Z" fill="#16BE8A"/>
</svg>
