<svg width="457" height="108" viewBox="0 0 457 108" fill="none" xmlns="http://www.w3.org/2000/svg">
<path d="M61.7515 30.8757C61.7515 47.9386 47.8371 61.7515 30.8758 61.7515C13.9144 61.7515 0 47.8371 0 30.8757C0 13.9144 13.9144 0 30.8758 0C47.8371 0 61.7515 13.8128 61.7515 30.8757ZM12.1878 30.8757C12.1878 41.1338 20.5161 49.5637 30.8758 49.5637C41.1338 49.5637 49.5637 41.2354 49.5637 30.8757C49.5637 20.6177 41.2354 12.1878 30.8758 12.1878C20.5161 12.1878 12.1878 20.5161 12.1878 30.8757Z" fill="white"/>
<path d="M117.409 60.735L83.8928 25.8982V60.735H72.0098V1.11633H75.7676L108.675 34.5312V1.11633H120.558V60.735H117.409Z" fill="white"/>
<path d="M143.512 48.7501H165.754V60.5316H131.628V0.912964H143.512V48.7501Z" fill="white"/>
<path d="M222.368 1.01587L202.969 38.798V60.6345H191.086V38.798L171.586 1.01587H184.789L197.079 23.4617L209.267 1.01587H222.368Z" fill="white"/>
<path d="M231.815 35.9529H260.964V45.8047H231.815V35.9529Z" fill="white"/>
<path d="M317.431 60.7352L283.914 25.8984V60.7352H272.031V1.11658H275.789L308.696 34.5314V1.11658H320.579V60.7352H317.431Z" fill="white"/>
<path d="M330.396 60.6186V1H342.279V60.6186H330.396Z" fill="white"/>
<path d="M396.854 15.5387C385.275 8.02291 367.806 15.0309 367.806 31.0781C367.806 47.8363 386.291 54.5396 397.463 46.0082L405.08 54.7428C399.697 59.2116 392.791 61.8523 385.377 61.8523C368.314 61.8523 354.501 47.9379 354.501 30.9766C354.501 14.0152 368.415 0.10083 385.478 0.10083C392.588 0.10083 399.291 2.53839 404.572 6.70255L396.854 15.5387Z" fill="white"/>
<path d="M456.069 12.9997H416.357V1.11658H456.069V12.9997ZM416.256 23.9687H449.163V35.8518H416.256V23.9687ZM416.256 48.7505H455.765V60.6336H416.256V48.7505Z" fill="white"/>
<path d="M99.6187 107.336C94.984 107.336 91.156 105.811 88.1347 102.76C85.1133 99.6803 83.6027 95.911 83.6027 91.4523C83.6027 86.9936 85.1133 83.239 88.1347 80.1883C91.156 77.1083 94.984 75.5683 99.6187 75.5683C102.435 75.5683 105.016 76.243 107.363 77.5923C109.709 78.9123 111.528 80.7016 112.819 82.9603L110.751 84.1483C109.724 82.2416 108.213 80.7163 106.219 79.5723C104.224 78.399 102.024 77.8123 99.6187 77.8123C95.6293 77.8123 92.344 79.1323 89.7627 81.7723C87.2107 84.383 85.9347 87.6096 85.9347 91.4523C85.9347 95.295 87.2107 98.5363 89.7627 101.176C92.344 103.787 95.6293 105.092 99.6187 105.092C102.024 105.092 104.239 104.506 106.263 103.332C108.287 102.159 109.812 100.59 110.839 98.6243L112.907 99.8123C111.645 102.1 109.827 103.934 107.451 105.312C105.075 106.662 102.464 107.336 99.6187 107.336ZM143.794 102.716C140.714 105.796 136.959 107.336 132.53 107.336C128.1 107.336 124.346 105.796 121.266 102.716C118.186 99.607 116.646 95.8523 116.646 91.4523C116.646 87.0523 118.186 83.3123 121.266 80.2323C124.346 77.123 128.1 75.5683 132.53 75.5683C136.959 75.5683 140.714 77.123 143.794 80.2323C146.874 83.3123 148.414 87.0523 148.414 91.4523C148.414 95.8523 146.874 99.607 143.794 102.716ZM122.894 101.132C125.534 103.772 128.746 105.092 132.53 105.092C136.314 105.092 139.511 103.772 142.122 101.132C144.762 98.463 146.082 95.2363 146.082 91.4523C146.082 87.6683 144.762 84.4563 142.122 81.8163C139.511 79.147 136.314 77.8123 132.53 77.8123C128.746 77.8123 125.534 79.147 122.894 81.8163C120.283 84.4563 118.978 87.6683 118.978 91.4523C118.978 95.2363 120.283 98.463 122.894 101.132ZM156.66 104.652H171.18V106.852H154.328V76.0523H156.66V104.652ZM178.359 104.652H192.879V106.852H176.027V76.0523H178.359V104.652ZM200.058 104.652H215.458V106.852H197.726V76.0523H215.238V78.2523H200.058V90.2203H214.138V92.4203H200.058V104.652ZM235.228 107.336C230.593 107.336 226.765 105.811 223.744 102.76C220.723 99.6803 219.212 95.911 219.212 91.4523C219.212 86.9936 220.723 83.239 223.744 80.1883C226.765 77.1083 230.593 75.5683 235.228 75.5683C238.044 75.5683 240.625 76.243 242.972 77.5923C245.319 78.9123 247.137 80.7016 248.428 82.9603L246.36 84.1483C245.333 82.2416 243.823 80.7163 241.828 79.5723C239.833 78.399 237.633 77.8123 235.228 77.8123C231.239 77.8123 227.953 79.1323 225.372 81.7723C222.82 84.383 221.544 87.6096 221.544 91.4523C221.544 95.295 222.82 98.5363 225.372 101.176C227.953 103.787 231.239 105.092 235.228 105.092C237.633 105.092 239.848 104.506 241.872 103.332C243.896 102.159 245.421 100.59 246.448 98.6243L248.516 99.8123C247.255 102.1 245.436 103.934 243.06 105.312C240.684 106.662 238.073 107.336 235.228 107.336ZM272.505 76.0523V78.2523H262.825V106.852H260.449V78.2523H250.769V76.0523H272.505ZM277.347 76.0523H279.679V106.852H277.347V76.0523ZM312.704 102.716C309.624 105.796 305.869 107.336 301.44 107.336C297.01 107.336 293.256 105.796 290.176 102.716C287.096 99.607 285.556 95.8523 285.556 91.4523C285.556 87.0523 287.096 83.3123 290.176 80.2323C293.256 77.123 297.01 75.5683 301.44 75.5683C305.869 75.5683 309.624 77.123 312.704 80.2323C315.784 83.3123 317.324 87.0523 317.324 91.4523C317.324 95.8523 315.784 99.607 312.704 102.716ZM291.804 101.132C294.444 103.772 297.656 105.092 301.44 105.092C305.224 105.092 308.421 103.772 311.032 101.132C313.672 98.463 314.992 95.2363 314.992 91.4523C314.992 87.6683 313.672 84.4563 311.032 81.8163C308.421 79.147 305.224 77.8123 301.44 77.8123C297.656 77.8123 294.444 79.147 291.804 81.8163C289.193 84.4563 287.888 87.6683 287.888 91.4523C287.888 95.2363 289.193 98.463 291.804 101.132ZM343.478 76.0523H345.81V106.852H343.742L325.57 80.3643V106.852H323.238V76.0523H325.262L343.478 102.54V76.0523ZM362.431 107.336C359.586 107.336 357.166 106.691 355.171 105.4C353.206 104.08 351.871 102.306 351.167 100.076L353.191 98.8883C353.748 100.795 354.804 102.306 356.359 103.42C357.943 104.535 359.967 105.092 362.431 105.092C364.924 105.092 366.831 104.52 368.151 103.376C369.5 102.232 370.175 100.751 370.175 98.9323C370.175 97.231 369.53 95.9256 368.239 95.0163C366.948 94.107 364.939 93.2123 362.211 92.3323C361.214 92.0096 360.48 91.775 360.011 91.6283C359.571 91.4523 358.926 91.203 358.075 90.8803C357.224 90.5283 356.594 90.2203 356.183 89.9563C355.772 89.6923 355.274 89.3403 354.687 88.9003C354.13 88.4603 353.719 88.0203 353.455 87.5803C353.191 87.111 352.956 86.5683 352.751 85.9523C352.546 85.307 352.443 84.603 352.443 83.8403C352.443 81.347 353.323 79.3523 355.083 77.8563C356.872 76.331 359.102 75.5683 361.771 75.5683C364.176 75.5683 366.23 76.1696 367.931 77.3723C369.632 78.575 370.879 80.1296 371.671 82.0363L369.691 83.1363C368.224 79.587 365.584 77.8123 361.771 77.8123C359.659 77.8123 357.972 78.3696 356.711 79.4843C355.45 80.599 354.819 82.0216 354.819 83.7523C354.819 85.4243 355.406 86.671 356.579 87.4923C357.752 88.3136 359.674 89.1643 362.343 90.0443C364.044 90.6016 365.364 91.0856 366.303 91.4963C367.271 91.8776 368.298 92.4203 369.383 93.1243C370.498 93.799 371.304 94.6203 371.803 95.5883C372.302 96.527 372.551 97.627 372.551 98.8883C372.551 101.44 371.627 103.494 369.779 105.048C367.931 106.574 365.482 107.336 362.431 107.336Z" fill="#9C5CEC"/>
</svg>
