<svg width="22" height="22" viewBox="0 0 22 22" fill="none" xmlns="http://www.w3.org/2000/svg">
<path fill-rule="evenodd" clip-rule="evenodd" d="M5.76153 1.02344C3.14476 1.02344 1.02344 3.14476 1.02344 5.76153V16.2377C1.02344 18.8545 3.14476 20.9758 5.76153 20.9758H16.2377C18.8545 20.9758 20.9758 18.8545 20.9758 16.2377V5.76153C20.9758 3.14476 18.8545 1.02344 16.2377 1.02344H5.76153ZM0.0234375 5.76153C0.0234375 2.59247 2.59247 0.0234375 5.76153 0.0234375H16.2377C19.4068 0.0234375 21.9758 2.59247 21.9758 5.76153V16.2377C21.9758 19.4068 19.4068 21.9758 16.2377 21.9758H5.76153C2.59247 21.9758 0.0234375 19.4068 0.0234375 16.2377V5.76153ZM11.5853 7.30359C10.8175 7.18973 10.0333 7.32089 9.34427 7.6784C8.65526 8.03591 8.09653 8.60158 7.74753 9.29495C7.39854 9.98832 7.27707 10.7741 7.40039 11.5405C7.52371 12.3068 7.88555 13.0148 8.43444 13.5637C8.98332 14.1126 9.69131 14.4744 10.4577 14.5978C11.2241 14.7211 12.0098 14.5996 12.7032 14.2506C13.3966 13.9016 13.9622 13.3429 14.3197 12.6539C14.6773 11.9649 14.8084 11.1807 14.6946 10.4128C14.5784 9.62959 14.2134 8.90448 13.6536 8.34459C13.0937 7.78471 12.3686 7.41974 11.5853 7.30359ZM8.8837 6.79078C9.75941 6.33639 10.7561 6.1697 11.732 6.31441C12.7275 6.46203 13.6491 6.92589 14.3607 7.63748C15.0723 8.34908 15.5361 9.27067 15.6837 10.2661C15.8285 11.242 15.6618 12.2387 15.2074 13.1144C14.753 13.9902 14.034 14.7003 13.1528 15.1438C12.2715 15.5874 11.2729 15.7418 10.2988 15.5851C9.32477 15.4283 8.42494 14.9684 7.72733 14.2708C7.02971 13.5732 6.56983 12.6734 6.41309 11.6993C6.25635 10.7253 6.41074 9.72661 6.8543 8.84536C7.29786 7.96411 8.00799 7.24517 8.8837 6.79078ZM16.7617 4.7373C16.4856 4.7373 16.2617 4.96116 16.2617 5.2373C16.2617 5.51345 16.4856 5.7373 16.7617 5.7373H16.7717C17.0479 5.7373 17.2717 5.51345 17.2717 5.2373C17.2717 4.96116 17.0479 4.7373 16.7717 4.7373H16.7617Z" fill="white"/>
</svg>
