<svg width="457" height="108" viewBox="0 0 457 108" fill="none" xmlns="http://www.w3.org/2000/svg">
<path d="M61.7515 30.8757C61.7515 47.9386 47.8371 61.7515 30.8758 61.7515C13.9144 61.7515 0 47.8371 0 30.8757C0 13.9144 13.9144 0 30.8758 0C47.8371 0 61.7515 13.8128 61.7515 30.8757ZM12.1878 30.8757C12.1878 41.1338 20.5161 49.5637 30.8758 49.5637C41.1338 49.5637 49.5637 41.2354 49.5637 30.8757C49.5637 20.6177 41.2354 12.1878 30.8758 12.1878C20.5161 12.1878 12.1878 20.5161 12.1878 30.8757Z" fill="white"/>
<path d="M117.409 60.735L83.8928 25.8982V60.735H72.0098V1.11639H75.7676L108.675 34.5312V1.11639H120.558V60.735H117.409Z" fill="white"/>
<path d="M143.512 48.7501H165.754V60.5317H131.628V0.913025H143.512V48.7501Z" fill="white"/>
<path d="M222.368 1.01581L202.969 38.798V60.6344H191.086V38.798L171.586 1.01581H184.789L197.079 23.4617L209.267 1.01581H222.368Z" fill="white"/>
<path d="M231.815 35.9529H260.964V45.8048H231.815V35.9529Z" fill="white"/>
<path d="M317.431 60.7353L283.914 25.8985V60.7353H272.031V1.11664H275.789L308.696 34.5315V1.11664H320.579V60.7353H317.431Z" fill="white"/>
<path d="M330.396 60.6186V1H342.279V60.6186H330.396Z" fill="white"/>
<path d="M396.854 15.5387C385.275 8.02291 367.806 15.0309 367.806 31.0781C367.806 47.8363 386.291 54.5396 397.463 46.0082L405.08 54.7428C399.697 59.2116 392.791 61.8523 385.377 61.8523C368.314 61.8523 354.501 47.9379 354.501 30.9766C354.501 14.0152 368.415 0.10083 385.478 0.10083C392.588 0.10083 399.291 2.53839 404.572 6.70255L396.854 15.5387Z" fill="white"/>
<path d="M456.069 12.9997H416.357V1.11664H456.069V12.9997ZM416.256 23.9687H449.163V35.8519H416.256V23.9687ZM416.256 48.7506H455.765V60.6337H416.256V48.7506Z" fill="white"/>
<path d="M155.927 107.072C152.905 107.072 150.177 106.398 147.743 105.048C145.337 103.699 143.431 101.836 142.023 99.4603C140.644 97.0843 139.955 94.415 139.955 91.4523C139.955 88.4896 140.644 85.8203 142.023 83.4443C143.431 81.0683 145.337 79.2056 147.743 77.8563C150.177 76.507 152.905 75.8323 155.927 75.8323C158.156 75.8323 160.209 76.199 162.087 76.9323C163.964 77.6363 165.563 78.6923 166.883 80.1003L165.475 81.5523C163.011 79.1176 159.857 77.9003 156.015 77.9003C153.433 77.9003 151.087 78.487 148.975 79.6603C146.863 80.8336 145.205 82.4616 144.003 84.5443C142.8 86.5976 142.199 88.9003 142.199 91.4523C142.199 94.0043 142.8 96.3216 144.003 98.4043C145.205 100.458 146.863 102.071 148.975 103.244C151.087 104.418 153.433 105.004 156.015 105.004C159.828 105.004 162.981 103.772 165.475 101.308L166.883 102.76C165.563 104.168 163.949 105.239 162.043 105.972C160.165 106.706 158.127 107.072 155.927 107.072ZM186.822 107.072C183.801 107.072 181.073 106.398 178.638 105.048C176.204 103.67 174.282 101.792 172.874 99.4163C171.496 97.0403 170.806 94.3856 170.806 91.4523C170.806 88.519 171.496 85.8643 172.874 83.4883C174.282 81.1123 176.204 79.2496 178.638 77.9003C181.073 76.5216 183.801 75.8323 186.822 75.8323C189.844 75.8323 192.572 76.507 195.006 77.8563C197.441 79.2056 199.348 81.0683 200.726 83.4443C202.134 85.8203 202.838 88.4896 202.838 91.4523C202.838 94.415 202.134 97.0843 200.726 99.4603C199.348 101.836 197.441 103.699 195.006 105.048C192.572 106.398 189.844 107.072 186.822 107.072ZM186.822 105.004C189.404 105.004 191.736 104.418 193.818 103.244C195.901 102.071 197.544 100.458 198.746 98.4043C199.949 96.3216 200.55 94.0043 200.55 91.4523C200.55 88.9003 199.949 86.5976 198.746 84.5443C197.544 82.4616 195.901 80.8336 193.818 79.6603C191.736 78.487 189.404 77.9003 186.822 77.9003C184.241 77.9003 181.894 78.487 179.782 79.6603C177.7 80.8336 176.057 82.4616 174.854 84.5443C173.652 86.5976 173.05 88.9003 173.05 91.4523C173.05 94.0043 173.652 96.3216 174.854 98.4043C176.057 100.458 177.7 102.071 179.782 103.244C181.894 104.418 184.241 105.004 186.822 105.004ZM239.749 106.852L239.705 80.4963L226.813 102.76H225.713L212.821 80.5843V106.852H210.621V76.0523H212.513L226.285 99.8563L240.057 76.0523H241.905L241.949 106.852H239.749ZM252.688 76.0523H254.932V106.852H252.688V76.0523ZM278.688 107.072C275.667 107.072 272.939 106.398 270.504 105.048C268.099 103.699 266.192 101.836 264.784 99.4603C263.406 97.0843 262.716 94.415 262.716 91.4523C262.716 88.4896 263.406 85.8203 264.784 83.4443C266.192 81.0683 268.099 79.2056 270.504 77.8563C272.939 76.507 275.667 75.8323 278.688 75.8323C280.918 75.8323 282.971 76.199 284.848 76.9323C286.726 77.6363 288.324 78.6923 289.644 80.1003L288.236 81.5523C285.772 79.1176 282.619 77.9003 278.776 77.9003C276.195 77.9003 273.848 78.487 271.736 79.6603C269.624 80.8336 267.967 82.4616 266.764 84.5443C265.562 86.5976 264.96 88.9003 264.96 91.4523C264.96 94.0043 265.562 96.3216 266.764 98.4043C267.967 100.458 269.624 102.071 271.736 103.244C273.848 104.418 276.195 105.004 278.776 105.004C282.59 105.004 285.743 103.772 288.236 101.308L289.644 102.76C288.324 104.168 286.711 105.239 284.804 105.972C282.927 106.706 280.888 107.072 278.688 107.072ZM305.085 107.072C302.826 107.072 300.67 106.691 298.617 105.928C296.593 105.136 295.009 104.124 293.865 102.892L294.877 101.22C295.962 102.364 297.414 103.303 299.233 104.036C301.081 104.74 303.017 105.092 305.041 105.092C307.974 105.092 310.189 104.535 311.685 103.42C313.181 102.306 313.929 100.854 313.929 99.0643C313.929 97.6856 313.533 96.5856 312.741 95.7643C311.949 94.943 310.966 94.3123 309.793 93.8723C308.619 93.4323 307.035 92.9776 305.041 92.5083C302.782 91.951 300.963 91.4083 299.585 90.8803C298.235 90.3523 297.077 89.5456 296.109 88.4603C295.17 87.3456 294.701 85.8643 294.701 84.0163C294.701 82.5203 295.097 81.1563 295.889 79.9243C296.681 78.663 297.883 77.6656 299.497 76.9323C301.139 76.199 303.178 75.8323 305.613 75.8323C307.314 75.8323 308.986 76.0816 310.629 76.5803C312.271 77.079 313.694 77.7536 314.897 78.6043L314.061 80.4083C312.829 79.5576 311.465 78.9123 309.969 78.4723C308.502 78.0323 307.05 77.8123 305.613 77.8123C302.767 77.8123 300.611 78.3843 299.145 79.5283C297.678 80.6723 296.945 82.1536 296.945 83.9723C296.945 85.351 297.341 86.451 298.133 87.2723C298.925 88.0936 299.907 88.7243 301.081 89.1643C302.254 89.6043 303.853 90.0736 305.877 90.5723C308.135 91.1296 309.939 91.6723 311.289 92.2003C312.638 92.7283 313.782 93.535 314.721 94.6203C315.689 95.6763 316.173 97.1136 316.173 98.9323C316.173 100.428 315.762 101.792 314.941 103.024C314.149 104.256 312.917 105.239 311.245 105.972C309.573 106.706 307.519 107.072 305.085 107.072Z" fill="#16BE8A"/>
</svg>
